<svg xmlns="http://www.w3.org/2000/svg" viewBox="0 0 400 100" fill="none">
  <!-- Technovation Girls Madrid Logo -->
  <!-- Icon -->
  <path d="M10 15C10 10 15 5 20 5h25c5 0 10 5 10 10v25c0 5-5 10-10 10H20c-5 0-10-5-10-10V15z" stroke="#43B02A" stroke-width="4" fill="none"/>
  <path d="M20 25c0-3 3-5 5-5h10c3 0 5 2 5 5v10c0 3-2 5-5 5H25c-2 0-5-2-5-5V25z" stroke="#43B02A" stroke-width="3" fill="none" opacity="0.6"/>
  
  <!-- TECHNOVATION text -->
  <text x="55" y="38" font-family="Arial Black, Arial, sans-serif" font-weight="900" font-size="28" fill="#0076CF">TECHNOVATION</text>
  
  <!-- Girls Madrid text -->
  <text x="55" y="70" font-family="Arial, sans-serif" font-weight="700" font-size="24">
    <tspan fill="#43B02A" font-style="italic">Girls</tspan>
    <tspan fill="#0076CF">Madrid</tspan>
  </text>
</svg>
